<svg width="120" height="35" viewBox="0 0 120 35" fill="none" xmlns="http://www.w3.org/2000/svg">
    <path
        d="M47.8899 6.67065C52.1527 6.67065 54.5111 8.96947 54.5111 13.0554C54.5111 17.1413 52.1527 19.4707 47.8899 19.4401H41.5397V28.2726H38.666V6.67065H47.8861H47.8899ZM46.9206 17.0191C50.0652 17.0497 51.6375 15.717 51.6375 13.0554C51.6375 10.3938 50.0652 9.09166 46.9206 9.09166H41.5397V17.0191H46.9206Z"
        fill="white" />
    <path
        d="M56.7191 14.5938C58.0815 13.051 59.9858 12.2644 62.3748 12.2644C64.7638 12.2644 66.6681 13.051 68.0267 14.5938C69.3891 16.1365 70.0836 18.0725 70.0836 20.463C70.0836 22.8535 69.3891 24.7895 68.0267 26.3322C66.6681 27.8749 64.7599 28.631 62.3748 28.631C59.9896 28.631 58.0815 27.8749 56.7191 26.3322C55.3567 24.7895 54.6621 22.8229 54.6621 20.463C54.6621 18.1031 55.3567 16.1365 56.7191 14.5938ZM65.9125 16.1059C64.9737 15.0482 63.7944 14.5021 62.3748 14.5021C60.9551 14.5021 59.7759 15.0482 58.8066 16.1059C57.8678 17.1637 57.3869 18.6186 57.3869 20.463C57.3869 22.3074 57.8716 23.7317 58.8066 24.7895C59.7759 25.8473 60.9513 26.3628 62.3748 26.3628C63.7982 26.3628 64.9737 25.8473 65.9125 24.7895C66.878 23.7317 67.3626 22.2768 67.3626 20.463C67.3626 18.6491 66.878 17.1637 65.9125 16.1059Z"
        fill="white" />
    <path d="M73.9813 9.81696H71.1992V6.67041H73.9813V9.81696ZM71.2297 12.6313H73.9507V28.2724H71.2297V12.6275V12.6313Z"
        fill="white" />
    <path
        d="M89.3086 17.9847V28.2721H86.5876V18.2596C86.5876 15.5064 85.2863 14.5403 82.9889 14.5403C79.9359 14.5403 78.3636 16.083 78.3636 19.9857V28.2759H75.6426V12.6272H78.2109V16.0143H78.272C78.9971 13.5016 80.9319 12.2644 83.3514 12.2644C87.3127 12.2644 89.3086 14.4716 89.3086 17.9809V17.9847Z"
        fill="white" />
    <path
        d="M97.6861 14.8691H94.572V25.0038C94.572 25.7293 94.7819 25.9737 95.7207 25.9737H97.5335V28.2725H94.4804C92.5456 28.2725 91.9121 27.1842 91.9121 25.2787V14.8729H89.3438V12.6352H91.9121V8.91589L94.4804 7.64429H94.572V12.6352H97.6861V14.8729V14.8691Z"
        fill="white" />
    <path
        d="M113.564 28.2685L111.026 21.372H102.229L99.6612 28.2685H96.6387L105.134 6.6665H108.309L116.804 28.2685H113.568H113.564ZM106.641 9.02641L103.042 19.0694H110.27L106.702 9.02641H106.641Z"
        fill="white" />
    <path d="M117.123 6.67041H119.997V28.2724H117.123V6.67041Z" fill="white" />
    <path
        d="M0 1.80429C0 1.19596 0.0372214 0.591773 0.107529 0H6.30283C6.18289 0.583497 6.12085 1.18768 6.12085 1.80429C6.12085 6.72469 10.1077 10.7181 15.0292 10.7181C15.6868 10.7181 16.3237 10.6478 16.9399 10.5112V16.7186C16.3154 16.7973 15.6744 16.8386 15.0292 16.8386C6.7288 16.8428 0 10.1098 0 1.80429Z"
        fill="#CFCFCF" />
    <path
        d="M25.4651 19.3013V26.7709C23.9721 28.3641 23.0623 30.5077 23.0623 32.8624C23.0623 33.479 23.1243 34.0832 23.2442 34.6667H17.0489C16.9786 34.0749 16.9414 33.4707 16.9414 32.8624C16.9414 26.8867 20.4237 21.7304 25.4651 19.3013Z"
        fill="#CFCFCF" />
    <path
        d="M16.9399 24.1548C16.3237 24.0182 15.6826 23.9479 15.0292 23.9479C10.1118 23.9479 6.12085 27.9372 6.12085 32.8617C6.12085 33.4783 6.18289 34.0825 6.30283 34.666H0.107529C0.0372214 34.0742 0 33.4701 0 32.8617C0 24.5562 6.7288 17.8232 15.0292 17.8232C15.6785 17.8232 16.3154 17.8646 16.9399 17.9433V24.1507V24.1548Z"
        fill="#CFCFCF" />
    <path
        d="M25.4651 7.89583V15.3654C20.4195 12.9404 16.9414 7.77995 16.9414 1.80429C16.9414 1.19596 16.9786 0.591773 17.0489 0H23.2442C23.1243 0.583497 23.0623 1.18768 23.0623 1.80429C23.0623 4.15896 23.9763 6.30259 25.4651 7.89583Z"
        fill="#CFCFCF" />
</svg>