<svg width="120" height="36" viewBox="0 0 120 36" fill="none" xmlns="http://www.w3.org/2000/svg">
    <path
        d="M47.8919 7.3374C52.1546 7.3374 54.5131 9.63622 54.5131 13.7221C54.5131 17.8081 52.1546 20.1374 47.8919 20.1069H41.5416V28.9394H38.668V7.3374H47.8881H47.8919ZM46.9225 17.6859C50.0671 17.7164 51.6394 16.3837 51.6394 13.7221C51.6394 11.0606 50.0671 9.75841 46.9225 9.75841H41.5416V17.6859H46.9225Z"
        fill="black" />
    <path
        d="M56.721 15.2605C58.0834 13.7178 59.9878 12.9312 62.3767 12.9312C64.7657 12.9312 66.67 13.7178 68.0286 15.2605C69.391 16.8032 70.0856 18.7393 70.0856 21.1297C70.0856 23.5202 69.391 25.4562 68.0286 26.999C66.67 28.5417 64.7619 29.2978 62.3767 29.2978C59.9916 29.2978 58.0834 28.5417 56.721 26.999C55.3586 25.4562 54.6641 23.4897 54.6641 21.1297C54.6641 18.7698 55.3586 16.8032 56.721 15.2605ZM65.9144 16.7727C64.9756 15.7149 63.7964 15.1689 62.3767 15.1689C60.9571 15.1689 59.7779 15.7149 58.8085 16.7727C57.8697 17.8304 57.3889 19.2853 57.3889 21.1297C57.3889 22.9741 57.8735 24.3985 58.8085 25.4562C59.7779 26.514 60.9533 27.0295 62.3767 27.0295C63.8002 27.0295 64.9756 26.514 65.9144 25.4562C66.8799 24.3985 67.3646 22.9436 67.3646 21.1297C67.3646 19.3159 66.8799 17.8304 65.9144 16.7727Z"
        fill="black" />
    <path d="M73.9832 10.4837H71.2012V7.33716H73.9832V10.4837ZM71.2317 13.298H73.9527V28.9391H71.2317V13.2942V13.298Z"
        fill="black" />
    <path
        d="M89.3106 18.6515V28.9388H86.5896V18.9264C86.5896 16.1732 85.2882 15.2071 82.9908 15.2071C79.9378 15.2071 78.3655 16.7498 78.3655 20.6524V28.9427H75.6445V13.2939H78.2129V16.681H78.2739C78.999 14.1684 80.9339 12.9312 83.3534 12.9312C87.3147 12.9312 89.3106 15.1383 89.3106 18.6476V18.6515Z"
        fill="black" />
    <path
        d="M97.6881 15.5359H94.574V25.6705C94.574 26.396 94.7839 26.6404 95.7227 26.6404H97.5354V28.9393H94.4824C92.5476 28.9393 91.9141 27.8509 91.9141 25.9454V15.5397H89.3457V13.302H91.9141V9.58264L94.4824 8.31104H94.574V13.302H97.6881V15.5397V15.5359Z"
        fill="black" />
    <path
        d="M113.566 28.9352L111.028 22.0388H102.231L99.6631 28.9352H96.6406L105.136 7.33325H108.311L116.806 28.9352H113.57H113.566ZM106.643 9.69316L103.044 19.7361H110.272L106.704 9.69316H106.643Z"
        fill="black" />
    <path d="M117.125 7.33716H119.999V28.9391H117.125V7.33716Z" fill="black" />
    <path
        d="M0.00195312 2.47104C0.00195312 1.86271 0.0391745 1.25852 0.109482 0.666748H6.30478C6.18484 1.25024 6.12281 1.85443 6.12281 2.47104C6.12281 7.39144 10.1096 11.3849 15.0311 11.3849C15.6887 11.3849 16.3256 11.3145 16.9418 11.178V17.3854C16.3173 17.464 15.6763 17.5054 15.0311 17.5054C6.73076 17.5095 0.00195312 10.7765 0.00195312 2.47104Z"
        fill="#3478FF" />
    <path
        d="M25.4671 19.968V27.4376C23.9741 29.0308 23.0642 31.1745 23.0642 33.5291C23.0642 34.1457 23.1263 34.7499 23.2462 35.3334H17.0509C16.9806 34.7417 16.9434 34.1375 16.9434 33.5291C16.9434 27.5535 20.4256 22.3972 25.4671 19.968Z"
        fill="#3478FF" />
    <path
        d="M16.9418 24.8215C16.3256 24.685 15.6846 24.6146 15.0311 24.6146C10.1138 24.6146 6.12281 28.6039 6.12281 33.5285C6.12281 34.1451 6.18484 34.7493 6.30478 35.3328H0.109482C0.0391745 34.741 0.00195312 34.1368 0.00195312 33.5285C0.00195312 25.223 6.73076 18.49 15.0311 18.49C15.6804 18.49 16.3173 18.5314 16.9418 18.61V24.8174V24.8215Z"
        fill="#3478FF" />
    <path
        d="M25.4671 8.56257V16.0322C20.4215 13.6071 16.9434 8.4467 16.9434 2.47104C16.9434 1.86271 16.9806 1.25852 17.0509 0.666748H23.2462C23.1263 1.25024 23.0642 1.85443 23.0642 2.47104C23.0642 4.82571 23.9782 6.96934 25.4671 8.56257Z"
        fill="#3478FF" />
</svg>