<svg width="1049" height="1049" viewBox="0 0 1049 1049" fill="none" xmlns="http://www.w3.org/2000/svg">
    <g opacity="0.3">
        <path
            d="M671.581 161.615C675.03 158.881 680.14 161.031 680.595 165.41L706.179 411.399C706.352 413.055 707.255 414.547 708.642 415.469L914.649 552.311C918.316 554.746 917.85 560.271 913.826 562.057L687.783 662.403C686.261 663.079 685.121 664.399 684.673 666.003L618.189 904.214C617.005 908.454 611.607 909.718 608.665 906.443L443.379 722.472C442.266 721.233 440.658 720.557 438.994 720.626L191.897 731.008C187.498 731.192 184.629 726.449 186.834 722.639L310.725 508.592C311.559 507.151 311.706 505.412 311.125 503.852L224.895 272.056C223.36 267.93 226.985 263.735 231.29 264.655L473.145 316.338C474.773 316.686 476.471 316.288 477.776 315.254L671.581 161.615Z"
            fill="url(#paint0_linear_1057_17709)" />
        <path
            d="M649.823 211.499C653.274 208.759 658.39 210.912 658.842 215.296L680.39 424.218C680.561 425.875 681.463 427.369 682.851 428.291L857.512 544.405C861.175 546.84 860.71 552.359 856.692 554.148L664.872 639.535C663.353 640.211 662.215 641.529 661.768 643.13L605.224 845.528C604.039 849.769 598.638 851.03 595.697 847.752L455.623 691.597C454.509 690.355 452.898 689.677 451.231 689.748L241.648 698.718C237.249 698.906 234.376 694.162 236.581 690.351L341.806 508.445C342.639 507.006 342.786 505.27 342.208 503.711L269.2 306.847C267.671 302.723 271.293 298.533 275.595 299.451L480.715 343.204C482.345 343.551 484.044 343.152 485.349 342.116L649.823 211.499Z"
            fill="url(#paint1_linear_1057_17709)" />
        <path
            d="M620.06 282.207C623.511 279.465 628.629 281.62 629.08 286.004L645.661 447.144C645.832 448.801 646.734 450.296 648.122 451.218L782.776 540.755C786.438 543.19 785.974 548.708 781.957 550.497L634.033 616.394C632.515 617.07 631.377 618.388 630.93 619.989L587.299 776.121C586.114 780.362 580.712 781.623 577.772 778.344L469.8 657.923C468.686 656.681 467.074 656.002 465.406 656.074L303.818 663.025C299.418 663.214 296.544 658.47 298.749 654.657L379.913 514.325C380.745 512.886 380.892 511.152 380.315 509.593L324.049 357.744C322.521 353.621 326.143 349.433 330.444 350.35L488.595 384.067C490.225 384.414 491.924 384.015 493.229 382.978L620.06 282.207Z"
            fill="url(#paint2_linear_1057_17709)" />
    </g>
    <g opacity="0.3">
        <path
            d="M209.435 466.495C210.321 465.793 211.633 466.345 211.75 467.469L218.318 530.628C218.363 531.053 218.594 531.436 218.951 531.673L271.844 566.807C272.785 567.432 272.665 568.851 271.632 569.309L213.595 595.074C213.204 595.247 212.912 595.586 212.797 595.998L195.727 657.159C195.423 658.248 194.037 658.572 193.281 657.731L150.844 610.496C150.558 610.178 150.145 610.005 149.718 610.023L86.2752 612.688C85.1459 612.735 84.4091 611.517 84.9753 610.539L116.785 555.582C116.999 555.212 117.036 554.766 116.887 554.365L94.7475 494.851C94.3534 493.792 95.284 492.715 96.3894 492.951L158.486 506.221C158.904 506.31 159.34 506.208 159.675 505.942L209.435 466.495Z"
            fill="url(#paint3_linear_1057_17709)" />
        <path
            d="M203.848 479.303C204.734 478.599 206.048 479.152 206.164 480.278L211.696 533.919C211.74 534.344 211.972 534.728 212.328 534.965L257.173 564.777C258.113 565.402 257.994 566.819 256.962 567.279L207.712 589.202C207.322 589.376 207.03 589.714 206.915 590.125L192.397 642.091C192.093 643.18 190.706 643.504 189.951 642.662L153.987 602.569C153.701 602.25 153.287 602.076 152.859 602.094L99.0485 604.397C97.9189 604.446 97.1812 603.228 97.7473 602.249L124.764 555.544C124.978 555.175 125.016 554.729 124.867 554.329L106.122 503.784C105.73 502.725 106.66 501.649 107.764 501.885L160.43 513.118C160.848 513.208 161.284 513.105 161.619 512.839L203.848 479.303Z"
            fill="url(#paint4_linear_1057_17709)" />
        <path
            d="M196.206 497.457C197.092 496.753 198.406 497.307 198.522 498.432L202.779 539.805C202.823 540.231 203.055 540.614 203.411 540.851L237.984 563.84C238.924 564.465 238.805 565.882 237.774 566.341L199.794 583.261C199.404 583.434 199.112 583.773 198.997 584.184L187.795 624.271C187.491 625.36 186.104 625.683 185.349 624.842L157.627 593.923C157.341 593.604 156.927 593.43 156.499 593.448L115.01 595.233C113.881 595.282 113.143 594.064 113.709 593.085L134.548 557.054C134.762 556.685 134.799 556.239 134.651 555.839L120.205 516.852C119.813 515.793 120.742 514.718 121.847 514.953L162.452 523.61C162.871 523.699 163.307 523.597 163.642 523.331L196.206 497.457Z"
            fill="url(#paint5_linear_1057_17709)" />
    </g>
    <defs>
        <linearGradient id="paint0_linear_1057_17709" x1="679.544" y1="155.302" x2="368.94" y2="893.179"
            gradientUnits="userSpaceOnUse">
            <stop stop-color="white" />
            <stop offset="1" stop-color="white" stop-opacity="0" />
        </linearGradient>
        <linearGradient id="paint1_linear_1057_17709" x1="657.797" y1="205.166" x2="391.565" y2="837.633"
            gradientUnits="userSpaceOnUse">
            <stop stop-color="white" />
            <stop offset="1" stop-color="white" stop-opacity="0" />
        </linearGradient>
        <linearGradient id="paint2_linear_1057_17709" x1="628.037" y1="275.869" x2="419.164" y2="772.072"
            gradientUnits="userSpaceOnUse">
            <stop stop-color="white" />
            <stop offset="1" stop-color="white" stop-opacity="0" />
        </linearGradient>
        <linearGradient id="paint3_linear_1057_17709" x1="211.48" y1="464.874" x2="131.731" y2="654.326"
            gradientUnits="userSpaceOnUse">
            <stop stop-color="white" />
            <stop offset="1" stop-color="white" stop-opacity="0" />
        </linearGradient>
        <linearGradient id="paint4_linear_1057_17709" x1="205.896" y1="477.677" x2="137.54" y2="640.064"
            gradientUnits="userSpaceOnUse">
            <stop stop-color="white" />
            <stop offset="1" stop-color="white" stop-opacity="0" />
        </linearGradient>
        <linearGradient id="paint5_linear_1057_17709" x1="198.254" y1="495.83" x2="144.626" y2="623.231"
            gradientUnits="userSpaceOnUse">
            <stop stop-color="white" />
            <stop offset="1" stop-color="white" stop-opacity="0" />
        </linearGradient>
    </defs>
</svg>