<svg width="64" height="64" viewBox="0 0 64 64" fill="none" xmlns="http://www.w3.org/2000/svg">
    <path fill-rule="evenodd" clip-rule="evenodd"
        d="M24 14C24 12.4087 24.6321 10.8826 25.7574 9.75736C26.8826 8.63214 28.4087 8 30 8H34C35.5913 8 37.1174 8.63214 38.2426 9.75736C39.3679 10.8826 40 12.4087 40 14V18C40 19.5913 39.3679 21.1174 38.2426 22.2426C37.1174 23.3679 35.5913 24 34 24V28H44C44.5304 28 45.0391 28.2107 45.4142 28.5858C45.7893 28.9609 46 29.4696 46 30V34C46 34.5304 45.7893 35.0391 45.4142 35.4142C45.0391 35.7893 44.5304 36 44 36C43.4696 36 42.9609 35.7893 42.5858 35.4142C42.2107 35.0391 42 34.5304 42 34V32H22V34C22 34.5304 21.7893 35.0391 21.4142 35.4142C21.0391 35.7893 20.5304 36 20 36C19.4696 36 18.9609 35.7893 18.5858 35.4142C18.2107 35.0391 18 34.5304 18 34V30C18 29.4696 18.2107 28.9609 18.5858 28.5858C18.9609 28.2107 19.4696 28 20 28H30V24C28.4087 24 26.8826 23.3679 25.7574 22.2426C24.6321 21.1174 24 19.5913 24 18V14ZM34 20C34.5304 20 35.0391 19.7893 35.4142 19.4142C35.7893 19.0391 36 18.5304 36 18V14C36 13.4696 35.7893 12.9609 35.4142 12.5858C35.0391 12.2107 34.5304 12 34 12H30C29.4696 12 28.9609 12.2107 28.5858 12.5858C28.2107 12.9609 28 13.4696 28 14V18C28 18.5304 28.2107 19.0391 28.5858 19.4142C28.9609 19.7893 29.4696 20 30 20H34ZM12 46C12 44.4087 12.6321 42.8826 13.7574 41.7574C14.8826 40.6321 16.4087 40 18 40H22C23.5913 40 25.1174 40.6321 26.2426 41.7574C27.3679 42.8826 28 44.4087 28 46V50C28 51.5913 27.3679 53.1174 26.2426 54.2426C25.1174 55.3679 23.5913 56 22 56H18C16.4087 56 14.8826 55.3679 13.7574 54.2426C12.6321 53.1174 12 51.5913 12 50V46ZM18 44C17.4696 44 16.9609 44.2107 16.5858 44.5858C16.2107 44.9609 16 45.4696 16 46V50C16 50.5304 16.2107 51.0391 16.5858 51.4142C16.9609 51.7893 17.4696 52 18 52H22C22.5304 52 23.0391 51.7893 23.4142 51.4142C23.7893 51.0391 24 50.5304 24 50V46C24 45.4696 23.7893 44.9609 23.4142 44.5858C23.0391 44.2107 22.5304 44 22 44H18ZM36 46C36 44.4087 36.6321 42.8826 37.7574 41.7574C38.8826 40.6321 40.4087 40 42 40H46C47.5913 40 49.1174 40.6321 50.2426 41.7574C51.3679 42.8826 52 44.4087 52 46V50C52 51.5913 51.3679 53.1174 50.2426 54.2426C49.1174 55.3679 47.5913 56 46 56H42C40.4087 56 38.8826 55.3679 37.7574 54.2426C36.6321 53.1174 36 51.5913 36 50V46ZM42 44C41.4696 44 40.9609 44.2107 40.5858 44.5858C40.2107 44.9609 40 45.4696 40 46V50C40 50.5304 40.2107 51.0391 40.5858 51.4142C40.9609 51.7893 41.4696 52 42 52H46C46.5304 52 47.0391 51.7893 47.4142 51.4142C47.7893 51.0391 48 50.5304 48 50V46C48 45.4696 47.7893 44.9609 47.4142 44.5858C47.0391 44.2107 46.5304 44 46 44H42Z"
        fill="#3478FF" />
</svg>