<svg width="64" height="64" viewBox="0 0 64 64" fill="none" xmlns="http://www.w3.org/2000/svg">
    <path
        d="M25.6 41.6L29.3333 37.7334L23.6 32L29.3333 26.2667L25.6 22.4L16 32L25.6 41.6ZM38.4 41.6L48 32L38.4 22.4L34.6667 26.2667L40.4 32L34.6667 37.7334L38.4 41.6ZM13.3333 56C11.8667 56 10.6116 55.4782 9.568 54.4347C8.52444 53.3911 8.00178 52.1351 8 50.6667V13.3334C8 11.8667 8.52267 10.6116 9.568 9.56802C10.6133 8.52447 11.8684 8.0018 13.3333 8.00002H24.5333C25.1111 6.40002 26.0782 5.11113 27.4347 4.13335C28.7911 3.15558 30.3129 2.66669 32 2.66669C33.6889 2.66669 35.2116 3.15558 36.568 4.13335C37.9244 5.11113 38.8907 6.40002 39.4667 8.00002H50.6667C52.1333 8.00002 53.3893 8.52269 54.4347 9.56802C55.48 10.6134 56.0018 11.8685 56 13.3334V50.6667C56 52.1334 55.4782 53.3894 54.4347 54.4347C53.3911 55.48 52.1351 56.0018 50.6667 56H13.3333ZM13.3333 50.6667H50.6667V13.3334H13.3333V50.6667ZM32 11.3334C32.5778 11.3334 33.056 11.144 33.4347 10.7654C33.8133 10.3867 34.0018 9.90935 34 9.33335C34 8.75558 33.8107 8.27824 33.432 7.90135C33.0533 7.52447 32.576 7.33513 32 7.33335C31.4222 7.33335 30.9449 7.52269 30.568 7.90135C30.1911 8.28002 30.0018 8.75735 30 9.33335C30 9.91113 30.1893 10.3894 30.568 10.768C30.9467 11.1467 31.424 11.3351 32 11.3334Z"
        fill="#3478FF" />
</svg>