<svg width="64" height="64" viewBox="0 0 64 64" fill="none" xmlns="http://www.w3.org/2000/svg">
    <g clip-path="url(#clip0_3003_11714)">
        <path fill-rule="evenodd" clip-rule="evenodd"
            d="M29.332 10.6666C28.2815 10.6666 27.2412 10.8736 26.2706 11.2756C25.3 11.6776 24.418 12.2669 23.6752 13.0098C22.9323 13.7527 22.343 14.6346 21.941 15.6052C21.539 16.5758 21.332 17.6161 21.332 18.6666C21.332 19.7172 21.539 20.7575 21.941 21.7281C22.343 22.6987 22.9323 23.5806 23.6752 24.3235C24.418 25.0664 25.3 25.6556 26.2706 26.0577C27.2412 26.4597 28.2815 26.6666 29.332 26.6666C31.4538 26.6666 33.4886 25.8238 34.9889 24.3235C36.4892 22.8232 37.332 20.7884 37.332 18.6666C37.332 16.5449 36.4892 14.5101 34.9889 13.0098C33.4886 11.5095 31.4538 10.6666 29.332 10.6666ZM15.9987 18.6666C15.9987 15.1304 17.4035 11.739 19.9039 9.23856C22.4044 6.73807 25.7958 5.33331 29.332 5.33331C32.8682 5.33331 36.2596 6.73807 38.7601 9.23856C41.2606 11.739 42.6654 15.1304 42.6654 18.6666C42.6654 22.2029 41.2606 25.5942 38.7601 28.0947C36.2596 30.5952 32.8682 32 29.332 32C25.7958 32 22.4044 30.5952 19.9039 28.0947C17.4035 25.5942 15.9987 22.2029 15.9987 18.6666ZM11.7667 46.936C10.9054 48.0293 10.6654 48.856 10.6654 49.3333C10.6654 49.6586 10.764 50.0026 11.3454 50.4693C12.0094 51.0026 13.164 51.5546 14.9294 52.0213C18.444 52.9546 23.4947 53.3333 29.332 53.3333C29.924 53.3333 30.508 53.328 31.0867 53.32C31.7939 53.3104 32.476 53.5822 32.9829 54.0756C33.4897 54.5689 33.7798 55.2434 33.7894 55.9506C33.7989 56.6579 33.5271 57.34 33.0338 57.8468C32.5404 58.3537 31.8659 58.6438 31.1587 58.6533C30.556 58.6613 29.9454 58.6666 29.332 58.6666C23.388 58.6666 17.772 58.2933 13.564 57.1786C11.4707 56.624 9.50003 55.8293 8.0067 54.6293C6.42536 53.36 5.33203 51.5866 5.33203 49.3333C5.33203 47.2346 6.2867 45.272 7.5827 43.6293C8.90003 41.9626 10.7214 40.4293 12.8574 39.1226C17.132 36.52 22.9454 34.6666 29.332 34.6666C30.524 34.6666 31.6974 34.7306 32.8414 34.8533C33.5447 34.9279 34.1896 35.2789 34.6342 35.829C35.0788 36.3791 35.2866 37.0833 35.212 37.7866C35.1374 38.49 34.7865 39.1349 34.2363 39.5795C33.6862 40.0241 32.982 40.2319 32.2787 40.1573C31.3187 40.0533 30.332 40 29.332 40C23.9374 40 19.084 41.5733 15.636 43.6773C13.9107 44.728 12.6067 45.8693 11.7667 46.936ZM48.844 37.4693C48.297 37.2871 47.7057 37.2871 47.1587 37.4693L39.1587 40.136C38.627 40.3125 38.1644 40.6519 37.8365 41.1062C37.5086 41.5604 37.3321 42.1064 37.332 42.6666V47.1226C37.3316 49.975 38.3831 52.7273 40.2852 54.8527C42.1874 56.9782 44.8065 58.3276 47.6414 58.6426C47.8814 58.6693 48.1187 58.6693 48.356 58.6426C51.1909 58.3276 53.81 56.9782 55.7121 54.8527C57.6143 52.7273 58.6657 49.975 58.6654 47.1226V42.6666C58.6655 42.1067 58.4894 41.561 58.162 41.1068C57.8346 40.6526 57.3726 40.3129 56.8414 40.136L48.844 37.4693ZM42.6654 47.1226V44.5893L47.9987 42.8106L53.332 44.5893V47.1226C53.332 50.2346 51.052 52.856 47.9987 53.312C46.5159 53.0909 45.1619 52.3447 44.183 51.2092C43.2041 50.0737 42.6656 48.6245 42.6654 47.1253"
            fill="#3478FF" />
    </g>
    <defs>
        <clipPath id="clip0_3003_11714">
            <rect width="64" height="64" fill="white" />
        </clipPath>
    </defs>
</svg>