<svg width="64" height="64" viewBox="0 0 64 64" fill="none" xmlns="http://www.w3.org/2000/svg">
    <path
        d="M50.6667 10.6667H13.3333V53.3334H50.6667V10.6667ZM8 7.97871C8 6.51737 9.192 5.33337 10.664 5.33337H53.3307C54.0379 5.33337 54.7162 5.61433 55.2163 6.11442C55.7164 6.61452 55.9973 7.2928 55.9973 8.00004L56 55.9814C56.0025 56.3316 55.9359 56.6788 55.8042 57.0033C55.6724 57.3278 55.4781 57.6231 55.2322 57.8725C54.9863 58.1218 54.6937 58.3203 54.3711 58.4566C54.0485 58.5929 53.7022 58.6643 53.352 58.6667H10.648C9.94767 58.6618 9.27738 58.3816 8.78191 57.8867C8.28645 57.3917 8.00559 56.7217 8 56.0214V7.97871ZM30.1147 34.992L41.4293 23.6774L45.2 27.448L30.1147 42.5334L19.7413 32.16L23.5147 28.3894L30.1147 34.992Z"
        fill="#3478FF" />
</svg>